<svg xmlns="http://www.w3.org/2000/svg" version="1.1" xmlns:xlink="http://www.w3.org/1999/xlink" xmlns:svgjs="http://svgjs.dev/svgjs" width="100%" height="100%" viewBox="0 0 1000 600"><rect width="1000" height="600" x="0" y="0" fill="#00000000"/><g><rect width="333.3333333333333" height="333.3333333333333" rx="13.333333333333334" ry="13.333333333333334" y="207.60695391385298" fill="#005555" transform="matrix(0.6742735427780737,0,0,0.6742735427780737,0,47.63722731905668)" x="185.38465881347656"/><path d="M319.09973025726265 313.18309884736453Q314.787786795715 317.8845081699551 310.08637747312446 323.8934100260472Q305.3849681505339 329.9023118821393 294.4799240413297 346.6215249169141Q283.54706094205096 363.3685569417634 283.54706094205096 366.37300786980944L283.54706094205096 366.37300786980944L283.9643457931685 367.7639573735345Q308.1946861480584 423.8470413637275 326.0266587858132 433.05512707838716L326.0266587858132 433.05512707838716Q328.22435900169876 433.8618777905477 328.22435900169876 435.47537921486867L328.22435900169876 435.47537921486867Q328.22435900169876 439.06402893447927 317.2080389321966 443.06996350520734L317.2080389321966 443.06996350520734Q310.78185222498695 445.2676637210929 305.6909770413534 445.2676637210929Q300.5722828676453 445.2676637210929 298.48585861205777 444.26618007841086Q296.3716153663957 443.2646964357288 294.1739151505102 440.6775303588003Q291.97621493462464 438.0625452917972 290.25143755000556 435.3641032545707Q288.5544791554611 432.66566121734417 285.8560371182345 427.04622522229505Q283.15759508100797 421.4546082173204 281.0433518353459 416.72537990465537Q278.95692757975837 412.0239705820648 275.1457259395518 403.42790264904414Q271.3345242993453 394.804015725949 268.13534044077767 387.79363022717484L268.13534044077767 387.79363022717484Q267.52332265913867 386.79214658449285 266.7165719469782 386.79214658449285Q265.93764022489216 386.79214658449285 265.13088951273164 387.98836315769637L265.13088951273164 387.98836315769637Q249.69135002138387 414.0269378674288 241.67948087992772 437.06106164911523L241.67948087992772 437.06106164911523Q240.6779972372457 441.4842810709608 232.88868001638556 444.57218896923035Q225.07154380545091 447.6879158575744 216.25292395183428 447.6879158575744Q207.4343040982176 447.6879158575744 207.4343040982176 445.0729307905714L207.4343040982176 445.0729307905714Q207.4343040982176 444.0714471478894 208.74179663171913 442.9865065349838Q210.04928916522067 441.8737469320038 211.63497159946718 440.3715214679808Q213.24847302378822 438.86929600395774 218.36716719749631 432.97167010816366Q223.4580423811299 427.04622522229505 228.8827454456575 419.6463738624779L228.8827454456575 419.6463738624779Q243.09824937372724 399.811433939359 257.50848623231855 370.3789424405375L257.50848623231855 370.3789424405375Q258.12050401395754 369.1549068772595 258.12050401395754 368.3759751551735L258.12050401395754 368.3759751551735L257.70321916284 366.95720666137396Q242.09676573104522 328.7060953089358 229.6616771677435 315.68680795406954L229.6616771677435 315.68680795406954Q226.65722623969745 312.6823570260235 224.07006016276893 311.875606313863L224.07006016276893 311.875606313863Q222.0670928774049 310.6793897406595 222.0670928774049 308.8711553858169L222.0670928774049 308.8711553858169Q222.0670928774049 305.28250566620636 232.27666223474654 302.55624463890535Q242.48623159208825 299.85780260167877 248.18912455736086 299.85780260167877Q253.91983651270795 299.85780260167877 256.11753672859345 303.47427131136385Q258.315236944479 307.0629210309744 260.81894605118407 313.2943748076625Q263.32265515788913 319.49800959427614 266.1323731554137 326.50839509305024L266.1323731554137 326.50839509305024Q273.1427586541878 344.34036773080504 274.3389752273913 346.5380679466906Q275.5351918005948 348.7357681625761 276.23066655245736 348.7357681625761Q276.95396029439434 348.7357681625761 277.53815908595885 347.7342845198941L277.53815908595885 347.7342845198941Q289.7506957286646 325.89637731141124 298.17984972123827 307.2854729515704L298.17984972123827 307.2854729515704Q299.57079922496325 303.47427131136385 306.0804429023964 302.05550281756433Q312.5900865798295 300.6645533138393 320.60195572128566 300.6645533138393Q328.6138248627418 300.6645533138393 328.6138248627418 302.86225352972485L328.6138248627418 302.86225352972485Q328.6138248627418 304.05847010292837 327.30633232924026 305.17122970590833Q326.0266587858132 306.2839893088884 324.7191662523117 307.3689299217939Q323.4116737188102 308.4816895247739 319.09973025726265 313.18309884736453ZM402.22287259987013 372.77137558694454Q404.14238291501067 367.7639573735345 405.4220564584376 362.4505302693049Q406.72954899193917 357.1371031650753 406.72954899193917 352.6304267730062Q406.72954899193917 348.1237503809371 403.5303651333717 335.9112137382314L403.5303651333717 335.9112137382314Q397.9109291383225 315.49207502354807 393.90499456759443 311.68087338334146L393.90499456759443 311.68087338334146L392.70877799439097 310.2899238796165Q390.7058107090269 309.06588831633843 390.7058107090269 307.4802058820919L390.7058107090269 307.4802058820919Q390.7058107090269 304.05847010292837 399.71916349316507 301.66603695652134Q408.7325162773032 299.27360381011425 414.4354092425758 299.27360381011425Q420.1661211979229 299.27360381011425 421.167604840605 302.6675205992033L421.167604840605 302.6675205992033Q423.560037987012 310.0673719590204 426.45321295476003 324.08814295656873Q429.37420691258257 338.10891395411693 431.46063116817015 348.23502634123514Q433.57487441383216 358.3611387283533 434.7710909870357 363.7580228028064Q435.9673075602392 369.1549068772595 437.9702748456032 377.77879380035466L437.9702748456032 377.77879380035466Q441.7814764858098 393.80253208326695 445.5926781260164 404.01210144060866L445.5926781260164 404.01210144060866Q446.7888946992199 406.8218194381332 448.4858530937644 406.8218194381332Q450.21063047838345 406.8218194381332 452.1023218034495 403.3166266887461Q453.9940131285156 399.811433939359 457.3044729473811 393.30179026192593Q460.6149327662466 386.79214658449285 466.1230928009977 370.1563905199415Q471.6312528357488 353.54845344546476 471.6312528357488 341.335916802759L471.6312528357488 341.335916802759Q471.6312528357488 322.50246052232217 459.22398326252164 314.68532431138755L459.22398326252164 314.68532431138755Q458.2224996198396 313.48910773818403 458.2224996198396 312.0703392443845Q458.2224996198396 310.6793897406595 459.6134491235646 309.28844023693443L459.6134491235646 309.28844023693443Q461.0043986272897 308.2869565942524 463.61938369429265 306.5621792096334Q466.23436876129574 304.86522081508883 474.0236859821558 302.1667787778623Q481.8408221930905 299.4683367406358 488.04445697970414 299.4683367406358Q494.27591075639225 299.4683367406358 495.47212732959576 301.1652951351803Q496.6683439027993 302.86225352972485 496.6683439027993 307.2854729515704L496.6683439027993 307.2854729515704Q496.6683439027993 326.70312802357176 485.151282011956 358.8618805496943Q473.6342201211129 390.9928140857424 460.72620872654466 415.52916333145185Q447.79037834190194 440.0655125771613 441.39201062476684 446.2691473637749L441.39201062476684 446.2691473637749Q437.9702748456032 449.273598291821 437.38607605403877 449.273598291821L437.38607605403877 449.273598291821Q435.5778416991962 449.273598291821 433.9643402748752 446.4916992843709L433.9643402748752 446.4916992843709Q427.17650669669706 435.0580943637512 419.1646375552409 401.8144012247231L419.1646375552409 401.8144012247231Q415.54816884555584 386.1801288028538 414.9361510639168 384.17716151748976Q414.3519522723523 382.1741942321257 413.9346674212348 382.1741942321257L413.9346674212348 382.1741942321257Q412.9331837785528 382.1741942321257 412.1542520564668 384.17716151748976L412.1542520564668 384.17716151748976Q405.14386655769266 400.42345172099806 396.51997963459746 415.9464481825693Q387.8960927115023 431.46944464414065 382.69394156757073 438.86929600395774L382.69394156757073 438.86929600395774L377.6865233541606 446.2691473637749Q375.68355606879663 449.07886536129945 373.6805887834326 449.07886536129945Q371.67762149806856 449.07886536129945 370.091939063822 446.4916992843709L370.091939063822 446.4916992843709Q364.66723599929446 436.2543109369547 356.8500997883598 407.0165523686547L356.8500997883598 407.0165523686547L354.2629337114313 397.0017159418345Q353.4561829992707 394.19199794430995 350.64646500174615 381.78472837108274L350.64646500174615 381.78472837108274Q340.0474297833615 334.32553130398486 334.4279937883124 322.50246052232217L334.4279937883124 322.50246052232217Q331.2288099297448 315.88154088459106 328.9198337535613 313.878573599227Q326.6108575773777 311.875606313863 325.21990807365273 311.48614045282L325.21990807365273 311.48614045282Q323.02220785776717 310.48465681013795 323.02220785776717 308.98243134611494Q323.02220785776717 307.4802058820919 324.60789029201374 306.06143738829235L324.60789029201374 306.06143738829235Q327.02814242849524 304.2810220235243 335.23474450047286 301.7773129168193Q343.4413465724506 299.27360381011425 349.06078256749964 299.27360381011425Q354.6523995724742 299.27360381011425 355.65388321515627 302.6675205992033L355.65388321515627 302.6675205992033Q359.65981778588434 310.0673719590204 365.084520850412 335.9112137382314L365.084520850412 335.9112137382314Q376.4903067809571 389.99133044306035 381.88719085541027 404.01210144060866L381.88719085541027 404.01210144060866Q382.8886744980922 406.8218194381332 384.6969088529348 406.8218194381332Q386.50514320777734 406.8218194381332 387.8960927115023 403.81736851008714L387.8960927115023 403.81736851008714Q389.7043270663449 402.00913415524457 395.01775417057445 389.9078734728369Q400.33118127480407 377.77879380035466 402.22287259987013 372.77137558694454Z " fill="#ffffff" transform="matrix(0.6742735427780737,0,0,0.6742735427780737,0,47.63722731905668)"/><path d="M689.1804005850174 398.00319958451655L689.1804005850174 398.00319958451655Q692.9916022252239 398.00319958451655 692.9916022252239 407.6285701502937Q692.9916022252239 417.2261217259964 689.4029525056134 424.8485250064095Q685.7864837959282 432.47092828682264 680.6677896222202 436.67159578807224Q675.5769144385866 440.8722632893218 669.150727731377 443.48724835632487L669.150727731377 443.48724835632487Q647.7301053740116 452.890067001506 629.0913820240962 443.06996350520734L629.0913820240962 443.06996350520734Q619.6885633789151 438.0625452917972 614.6811451655051 431.16343575332115Q609.673726952095 424.2365072247705 606.6692760240489 414.63895564906784L606.6692760240489 414.63895564906784Q602.0513236716818 400.20089980040206 602.0513236716818 384.39971343808577Q602.0513236716818 368.570708085695 605.0557745997278 354.7446700186683Q608.0602255277739 340.91863195164154 614.291679304462 328.4000864181163Q620.4953140910757 315.88154088459106 631.9011000216208 308.2869565942524Q643.3347049422405 300.6645533138393 658.3569595824708 300.6645533138393L658.3569595824708 300.6645533138393Q664.7553272996059 300.6645533138393 671.6544368380821 302.7787965595013Q678.5813653666327 304.86522081508883 682.9767657984037 307.9809477034329Q687.3999852202494 311.06885560170247 690.7939020093384 317.4950423089121Q694.1878187984274 323.8934100260472 694.1878187984274 332.51729694914235L694.1878187984274 332.51729694914235Q694.1878187984274 341.725382663802 689.7924183666564 349.12523402361916L689.7924183666564 349.12523402361916Q687.7894510812923 352.5469698027827 683.3940506495212 355.24541184000924Q678.9708312276757 357.9438538772358 672.9619293715836 357.9438538772358L672.9619293715836 357.9438538772358Q663.7538436569239 357.9438538772358 659.9426420167174 349.73725180525815L659.9426420167174 349.73725180525815Q658.3569595824708 346.5380679466906 658.3569595824708 342.72686630648406Q658.3569595824708 338.91566466627745 660.9441256593993 338.331465874713L660.9441256593993 338.331465874713Q663.7538436569239 337.52471516255247 666.1462768033309 333.9082464528674Q668.5665289398125 330.3195967332568 668.5665289398125 325.50691145036825L668.5665289398125 325.50691145036825Q668.5665289398125 321.69570981016165 666.5635616544484 318.88599181263714L666.5635616544484 318.88599181263714Q662.752360014242 313.878573599227 655.5472415849463 313.878573599227Q648.3421231556506 313.878573599227 642.4166782697821 320.49949323695813Q636.519052373988 327.09259388461476 633.5146014459419 337.10743031143494L633.5146014459419 337.10743031143494Q627.5056995898498 357.1371031650753 627.5056995898498 373.9675921601481L627.5056995898498 373.9675921601481Q627.5056995898498 390.7980811552209 632.0958329521424 401.0076505125626L632.0958329521424 401.0076505125626Q637.7152689471914 413.6374720063858 646.3391558702866 417.8381395076354L646.3391558702866 417.8381395076354Q651.7360399447397 420.4531245746384 658.7464254435138 420.4531245746384L658.7464254435138 420.4531245746384Q670.5694962251765 420.4531245746384 679.9723148703576 409.82627036617924L679.9723148703576 409.82627036617924Q683.9782494410858 405.62560286492965 686.5932345080888 399.811433939359L686.5932345080888 399.811433939359Q687.5947181507709 398.00319958451655 689.1804005850174 398.00319958451655ZM737.6689002848717 355.13413587971127L737.6689002848717 355.13413587971127L737.6689002848717 357.9438538772358L773.1102936397854 357.9438538772358L773.1102936397854 357.55438801619283Q773.3050265703068 352.74170273330424 773.3050265703068 345.4253083437106Q773.3050265703068 338.10891395411693 773.1102936397854 332.60075391936584Q772.9155607092638 327.09259388461476 772.7208277787423 323.3092112344827Q772.5260948482209 319.49800959427614 772.2200859574014 316.6882915967516Q771.9140770665819 313.878573599227 771.7193441360604 312.376348135204Q771.5246112055388 310.874122671181 771.5246112055388 309.6779060979774Q771.5246112055388 308.4816895247739 773.7223114214244 306.8681881004529L773.7223114214244 306.8681881004529Q783.319862997127 300.4698203833178 795.1429337787898 300.4698203833178L795.1429337787898 300.4698203833178Q802.5706041286813 300.4698203833178 802.5706041286813 303.0569864602463L802.5706041286813 303.0569864602463Q802.5706041286813 303.2795383808423 802.1533192775639 305.28250566620636L802.1533192775639 305.28250566620636Q798.3421176373573 324.3106948771647 797.3406339946754 357.9438538772358L797.3406339946754 357.9438538772358Q796.7564352031108 391.6048318673814 796.7564352031108 393.9972650137884L796.7564352031108 393.9972650137884Q796.7564352031108 425.043257936931 800.3450849227214 437.06106164911523L800.3450849227214 437.06106164911523Q800.9571027043604 438.6745630734362 800.9571027043604 439.7595036863418Q800.9571027043604 440.8722632893218 799.3436012800394 442.2632127930468L799.3436012800394 442.2632127930468Q791.9437499202222 447.0758980759354 780.1206791385595 447.0758980759354L780.1206791385595 447.0758980759354Q772.5260948482209 447.0758980759354 771.5246112055388 441.8737469320038L771.5246112055388 441.8737469320038Q770.9125934238998 439.06402893447927 770.9125934238998 433.16640303868513Q770.9125934238998 427.2409581528165 771.6080681757624 415.02842151011083Q772.3035429276249 402.81588486740515 772.7208277787423 372.38190972590155L772.7208277787423 372.38190972590155L737.6689002848717 372.38190972590155Q737.6689002848717 418.03287243815686 740.4786182823963 436.47686285755077L740.4786182823963 436.47686285755077Q740.4786182823963 441.26172915036483 731.2427135776621 444.3774560387089Q722.0346278630025 447.49318292705294 716.0257260069103 447.49318292705294Q710.0168241508183 447.49318292705294 710.0168241508183 445.6849485722104L710.0168241508183 445.6849485722104Q710.0168241508183 444.48873199900686 710.6288419324572 442.6804976441643L710.6288419324572 442.6804976441643Q714.4400435726639 434.2513436515907 714.4400435726639 374.9690758028301L714.4400435726639 374.9690758028301L714.4400435726639 372.38190972590155L702.6169727910011 372.38190972590155Q701.0034713666801 372.38190972590155 701.0034713666801 371.15787416262356L701.0034713666801 371.15787416262356Q701.0034713666801 370.76840830158056 701.8102220788406 368.069966264354Q702.6169727910011 365.37152422712745 705.5101477587492 361.7550555174424Q708.4311417165717 358.1385868077573 712.0197914361822 358.1385868077573L712.0197914361822 358.1385868077573L714.2174916520678 358.1385868077573Q714.2174916520678 318.6912588821156 709.6273582897752 312.6823570260235L709.6273582897752 312.6823570260235L708.8206075776147 311.48614045282Q707.6243910044112 310.48465681013795 707.6243910044112 308.98243134611494Q707.6243910044112 307.4802058820919 709.8220912202968 306.4787222394099L709.8220912202968 306.4787222394099Q712.8265421483428 304.67048788456736 720.5324023989795 302.86225352972485Q728.2382626496161 301.0540191748823 734.4697164263042 301.0540191748823Q740.6733512129177 301.0540191748823 740.6733512129177 303.86373717240684L740.6733512129177 303.86373717240684L740.6733512129177 304.47575495404584Q738.2530990764362 325.3121785198467 737.6689002848717 355.13413587971127ZM900.9107340420406 419.0343560808389L900.9107340420406 419.0343560808389Q900.9107340420406 433.05512707838716 891.980838228126 439.87077964663973Q883.0787614042858 446.68643221489236 867.0550231213736 446.68643221489236L867.0550231213736 446.68643221489236Q841.4059142726841 446.68643221489236 829.3046535902764 429.6612102892981Q817.1755739177942 412.6359883637038 817.1755739177942 385.1786451601718L817.1755739177942 385.1786451601718Q817.1755739177942 380.7832447284007 817.5928587689117 372.38190972590155L817.5928587689117 372.38190972590155L806.3539867788135 372.38190972590155Q804.7683043445669 372.38190972590155 804.7683043445669 371.15787416262356L804.7683043445669 371.15787416262356Q804.7683043445669 367.7639573735345 808.162221133656 362.9512720906459Q811.5839569128196 358.1385868077573 815.5898914835476 358.1385868077573L815.5898914835476 358.1385868077573L819.3732741336797 358.1385868077573Q821.9882592006828 343.72834994916605 827.8858850964768 332.7120298796639Q833.8113299823455 321.69570981016165 840.3209736597786 315.68680795406954Q846.8306173372117 309.6779060979774 854.6477535481463 306.06143738829235L854.6477535481463 306.06143738829235Q867.0550231213736 300.0525355322003 880.6863282578787 300.0525355322003Q894.2898144043095 300.0525355322003 897.7115501834732 304.47575495404584L897.7115501834732 304.47575495404584Q899.2972326177196 306.6734551699314 899.2972326177196 312.5710810657255Q899.2972326177196 318.4965259515941 897.9062831139946 318.4965259515941L897.9062831139946 318.4965259515941Q897.7115501834732 318.4965259515941 896.098048759152 317.6897752394336L896.098048759152 317.6897752394336Q890.8958976152204 315.29734209302654 883.0787614042858 315.29734209302654L883.0787614042858 315.29734209302654Q866.0535394786915 315.29734209302654 856.5394448732123 327.31514580521076Q847.0253502677332 339.332949517395 843.8261664091656 358.1385868077573L843.8261664091656 358.1385868077573Q859.0431539799174 357.9438538772358 885.0817286896498 357.9438538772358L885.0817286896498 357.9438538772358Q887.0846959750139 357.9438538772358 887.0846959750139 359.36262237103534L887.0846959750139 359.36262237103534Q887.0846959750139 362.5618062296029 883.8855121164464 367.457948482715Q880.6863282578787 372.38190972590155 876.6803936871507 372.38190972590155L876.6803936871507 372.38190972590155L842.2126649848445 372.38190972590155Q842.0179320543231 374.77434287230864 842.0179320543231 382.89748797406276Q842.0179320543231 390.9928140857424 844.9111070220712 399.92270989965704Q847.8321009798937 408.8247867234972 855.7326941610519 415.02842151011083Q863.6611063322845 421.23205629672447 876.2631088360332 421.23205629672447Q888.8929303298564 421.23205629672447 897.4889982628771 415.64043929174983L897.4889982628771 415.64043929174983Q898.4904819055591 414.8336885795893 899.2972326177196 414.8336885795893L899.2972326177196 414.8336885795893Q900.9107340420406 414.8336885795893 900.9107340420406 419.0343560808389ZM985.6195588188947 381.17271058944374L985.6195588188947 381.17271058944374L985.4248258883732 357.3596550856713Q985.4248258883732 321.89044274068317 983.0323927419661 310.2899238796165L983.0323927419661 310.2899238796165Q982.6151078908487 308.8711553858169 982.6151078908487 308.06440467365644L982.6151078908487 308.06440467365644Q982.6151078908487 304.67048788456736 989.4307604591012 302.27805473816034Q996.2464130273539 299.85780260167877 1000.252347598082 299.85780260167877Q1004.2582821688101 299.85780260167877 1004.2582821688101 302.27805473816034L1004.2582821688101 302.27805473816034Q1004.2582821688101 302.4727876686818 1003.8688163077669 304.47575495404584L1003.8688163077669 304.47575495404584Q999.2508639554 329.0955611699788 999.2508639554 382.7862120137648L999.2508639554 382.7862120137648Q999.2508639554 419.45164093195643 1003.4515314566495 435.47537921486867L1003.4515314566495 435.47537921486867Q1004.2582821688101 438.0625452917972 1004.2582821688101 438.2572782223187L1004.2582821688101 438.2572782223187Q1004.2582821688101 442.4857647136428 995.0501964541503 445.18420675086935Q985.8421107394907 447.8826487880959 982.030909099284 447.8826487880959L982.030909099284 447.8826487880959Q976.022007243192 447.8826487880959 973.8243070273065 445.0729307905714L973.8243070273065 445.0729307905714Q969.4010876054609 439.4813137855968 959.4975271389387 413.5261960460878Q949.566147682342 387.5988972966533 942.1662963225249 365.14897230653145L942.1662963225249 365.14897230653145L934.5438930421118 342.72686630648406Q934.1544271810687 341.725382663802 933.5424093994297 341.725382663802L933.5424093994297 341.725382663802Q932.7634776773438 341.725382663802 931.7619940346617 343.11633216752705L931.7619940346617 343.11633216752705Q930.7605103919797 361.7550555174424 930.7605103919797 380.3937788673577Q930.7605103919797 399.00468322719854 931.0387002927247 409.0195196540187Q931.3447091835442 419.0343560808389 931.7619940346617 424.2365072247705Q932.1514598957048 429.46647735877656 932.5409257567477 432.55438525704614Q932.9582106078652 435.6701121453902 933.2642194986848 437.06106164911523Q933.5424093994297 438.47983014291475 933.5424093994297 439.06402893447927L933.5424093994297 439.06402893447927Q933.5424093994297 442.8752305746858 926.9493087517732 444.9894738203479Q920.3283891140419 447.0758980759354 915.0149620098124 447.0758980759354Q909.7293538956573 447.0758980759354 909.7293538956573 444.6834649295284L909.7293538956573 444.6834649295284Q909.7293538956573 443.48724835632487 910.3135526872219 441.6790140014823Q910.9255704688609 439.87077964663973 911.7323211810213 437.06106164911523L911.7323211810213 437.06106164911523Q913.7352884663854 430.0506761503411 914.5142201884713 411.5232287607238Q915.3209709006319 392.99578137110643 915.3209709006319 369.2661828375575Q915.3209709006319 345.5365843040086 914.7367721090674 334.7149971650279L914.7367721090674 334.7149971650279Q913.7352884663854 317.0777574577946 911.1203033993824 311.06885560170247L911.1203033993824 311.06885560170247Q910.5082856177434 310.48465681013795 910.5082856177434 309.4831731674559L910.5082856177434 309.4831731674559Q910.5082856177434 306.2839893088884 921.1351398262025 303.2795383808423Q931.7619940346617 300.2750874527963 937.6596199304558 300.2750874527963Q943.5572458262499 300.2750874527963 944.558729468932 300.4698203833178L944.558729468932 300.4698203833178Q947.3684474664565 300.2750874527963 947.9804652480956 303.6690042418853L947.9804652480956 303.6690042418853Q953.794634173666 324.7001607382077 964.3102124218273 353.13116859434723Q974.8257906699885 381.5899954405612 983.0323927419661 396.6122500807915L983.0323927419661 396.6122500807915Q984.0338763846481 397.61373372347356 984.6180751762128 397.61373372347356L984.6180751762128 397.61373372347356Q985.6195588188947 397.61373372347356 985.6195588188947 381.17271058944374ZM1120.1243758291046 313.18309884736453Q1115.812432367557 317.8845081699551 1111.1110230449663 323.8934100260472Q1106.409613722376 329.9023118821393 1095.5045696131715 346.6215249169141Q1084.5717065138929 363.3685569417634 1084.5717065138929 366.37300786980944L1084.5717065138929 366.37300786980944L1084.9889913650104 367.7639573735345Q1109.2193317199003 423.8470413637275 1127.0513043576552 433.05512707838716L1127.0513043576552 433.05512707838716Q1129.2490045735408 433.8618777905477 1129.2490045735408 435.47537921486867L1129.2490045735408 435.47537921486867Q1129.2490045735408 439.06402893447927 1118.2326845040386 443.06996350520734L1118.2326845040386 443.06996350520734Q1111.8064977968288 445.2676637210929 1106.7156226131951 445.2676637210929Q1101.5969284394873 445.2676637210929 1099.5105041838997 444.26618007841086Q1097.3962609382377 443.2646964357288 1095.1985607223523 440.6775303588003Q1093.0008605064666 438.0625452917972 1091.2760831218475 435.3641032545707Q1089.5791247273032 432.66566121734417 1086.8806826900764 427.04622522229505Q1084.18224065285 421.4546082173204 1082.067997407188 416.72537990465537Q1079.9815731516005 412.0239705820648 1076.1703715113938 403.42790264904414Q1072.359169871187 394.804015725949 1069.1599860126198 387.79363022717484L1069.1599860126198 387.79363022717484Q1068.5479682309806 386.79214658449285 1067.7412175188201 386.79214658449285Q1066.9622857967342 386.79214658449285 1066.1555350845738 387.98836315769637L1066.1555350845738 387.98836315769637Q1050.7159955932257 414.0269378674288 1042.7041264517698 437.06106164911523L1042.7041264517698 437.06106164911523Q1041.7026428090876 441.4842810709608 1033.9133255882275 444.57218896923035Q1026.0961893772928 447.6879158575744 1017.2775695236762 447.6879158575744Q1008.4589496700596 447.6879158575744 1008.4589496700596 445.0729307905714L1008.4589496700596 445.0729307905714Q1008.4589496700596 444.0714471478894 1009.766442203561 442.9865065349838Q1011.0739347370626 441.8737469320038 1012.6596171713092 440.3715214679808Q1014.2731185956302 438.86929600395774 1019.3918127693383 432.97167010816366Q1024.482687952972 427.04622522229505 1029.9073910174993 419.6463738624779L1029.9073910174993 419.6463738624779Q1044.1228949455692 399.811433939359 1058.5331318041603 370.3789424405375L1058.5331318041603 370.3789424405375Q1059.1451495857996 369.1549068772595 1059.1451495857996 368.3759751551735L1059.1451495857996 368.3759751551735L1058.727864734682 366.95720666137396Q1043.1214113028873 328.7060953089358 1030.6863227395856 315.68680795406954L1030.6863227395856 315.68680795406954Q1027.6818718115394 312.6823570260235 1025.094705734611 311.875606313863L1025.094705734611 311.875606313863Q1023.0917384492469 310.6793897406595 1023.0917384492469 308.8711553858169L1023.0917384492469 308.8711553858169Q1023.0917384492469 305.28250566620636 1033.3013078065885 302.55624463890535Q1043.5108771639302 299.85780260167877 1049.2137701292027 299.85780260167877Q1054.9444820845501 299.85780260167877 1057.1421823004355 303.47427131136385Q1059.3398825163208 307.0629210309744 1061.843591623026 313.2943748076625Q1064.3473007297312 319.49800959427614 1067.1570187272555 326.50839509305024L1067.1570187272555 326.50839509305024Q1074.1674042260297 344.34036773080504 1075.363620799233 346.5380679466906Q1076.559837372437 348.7357681625761 1077.2553121242995 348.7357681625761Q1077.9786058662362 348.7357681625761 1078.5628046578008 347.7342845198941L1078.5628046578008 347.7342845198941Q1090.7753413005066 325.89637731141124 1099.20449529308 307.2854729515704L1099.20449529308 307.2854729515704Q1100.5954447968052 303.47427131136385 1107.1050884742385 302.05550281756433Q1113.6147321516714 300.6645533138393 1121.6266012931278 300.6645533138393Q1129.6384704345837 300.6645533138393 1129.6384704345837 302.86225352972485L1129.6384704345837 302.86225352972485Q1129.6384704345837 304.05847010292837 1128.3309779010824 305.17122970590833Q1127.0513043576552 306.2839893088884 1125.7438118241537 307.3689299217939Q1124.4363192906521 308.4816895247739 1120.1243758291046 313.18309884736453ZM1203.2475181717123 372.77137558694454Q1205.1670284868526 367.7639573735345 1206.4467020302795 362.4505302693049Q1207.754194563781 357.1371031650753 1207.754194563781 352.6304267730062Q1207.754194563781 348.1237503809371 1204.5550107052136 335.9112137382314L1204.5550107052136 335.9112137382314Q1198.9355747101645 315.49207502354807 1194.9296401394363 311.68087338334146L1194.9296401394363 311.68087338334146L1193.733423566233 310.2899238796165Q1191.7304562808688 309.06588831633843 1191.7304562808688 307.4802058820919L1191.7304562808688 307.4802058820919Q1191.7304562808688 304.05847010292837 1200.743809065007 301.66603695652134Q1209.7571618491452 299.27360381011425 1215.4600548144176 299.27360381011425Q1221.1907667697647 299.27360381011425 1222.1922504124468 302.6675205992033L1222.1922504124468 302.6675205992033Q1224.584683558854 310.0673719590204 1227.4778585266017 324.08814295656873Q1230.3988524844244 338.10891395411693 1232.485276740012 348.23502634123514Q1234.5995199856743 358.3611387283533 1235.7957365588777 363.7580228028064Q1236.991953132081 369.1549068772595 1238.9949204174454 377.77879380035466L1238.9949204174454 377.77879380035466Q1242.806122057652 393.80253208326695 1246.6173236978584 404.01210144060866L1246.6173236978584 404.01210144060866Q1247.8135402710618 406.8218194381332 1249.5104986656065 406.8218194381332Q1251.2352760502254 406.8218194381332 1253.1269673752913 403.3166266887461Q1255.0186587003577 399.811433939359 1258.329118519223 393.30179026192593Q1261.6395783380885 386.79214658449285 1267.1477383728397 370.1563905199415Q1272.655898407591 353.54845344546476 1272.655898407591 341.335916802759L1272.655898407591 341.335916802759Q1272.655898407591 322.50246052232217 1260.2486288343634 314.68532431138755L1260.2486288343634 314.68532431138755Q1259.2471451916817 313.48910773818403 1259.2471451916817 312.0703392443845Q1259.2471451916817 310.6793897406595 1260.6380946954064 309.28844023693443L1260.6380946954064 309.28844023693443Q1262.0290441991315 308.2869565942524 1264.6440292661346 306.5621792096334Q1267.2590143331377 304.86522081508883 1275.0483315539977 302.1667787778623Q1282.8654677649324 299.4683367406358 1289.0691025515462 299.4683367406358Q1295.300556328234 299.4683367406358 1296.496772901438 301.1652951351803Q1297.6929894746413 302.86225352972485 1297.6929894746413 307.2854729515704L1297.6929894746413 307.2854729515704Q1297.6929894746413 326.70312802357176 1286.175927583798 358.8618805496943Q1274.6588656929548 390.9928140857424 1261.7508542983865 415.52916333145185Q1248.815023913744 440.0655125771613 1242.4166561966085 446.2691473637749L1242.4166561966085 446.2691473637749Q1238.9949204174454 449.273598291821 1238.4107216258808 449.273598291821L1238.4107216258808 449.273598291821Q1236.6024872710382 449.273598291821 1234.9889858467172 446.4916992843709L1234.9889858467172 446.4916992843709Q1228.2011522685389 435.0580943637512 1220.189283127083 401.8144012247231L1220.189283127083 401.8144012247231Q1216.5728144173977 386.1801288028538 1215.960796635759 384.17716151748976Q1215.3765978441943 382.1741942321257 1214.9593129930768 382.1741942321257L1214.9593129930768 382.1741942321257Q1213.9578293503946 382.1741942321257 1213.1788976283087 384.17716151748976L1213.1788976283087 384.17716151748976Q1206.1685121295345 400.42345172099806 1197.5446252064394 415.9464481825693Q1188.9207382833442 431.46944464414065 1183.7185871394126 438.86929600395774L1183.7185871394126 438.86929600395774L1178.7111689260025 446.2691473637749Q1176.7082016406387 449.07886536129945 1174.7052343552746 449.07886536129945Q1172.7022670699105 449.07886536129945 1171.116584635664 446.4916992843709L1171.116584635664 446.4916992843709Q1165.6918815711365 436.2543109369547 1157.8747453602018 407.0165523686547L1157.8747453602018 407.0165523686547L1155.2875792832733 397.0017159418345Q1154.4808285711129 394.19199794430995 1151.671110573588 381.78472837108274L1151.671110573588 381.78472837108274Q1141.0720753552034 334.32553130398486 1135.4526393601543 322.50246052232217L1135.4526393601543 322.50246052232217Q1132.2534555015868 315.88154088459106 1129.9444793254033 313.878573599227Q1127.6355031492199 311.875606313863 1126.2445536454948 311.48614045282L1126.2445536454948 311.48614045282Q1124.0468534296092 310.48465681013795 1124.0468534296092 308.98243134611494Q1124.0468534296092 307.4802058820919 1125.6325358638555 306.06143738829235L1125.6325358638555 306.06143738829235Q1128.0527880003374 304.2810220235243 1136.259390072315 301.7773129168193Q1144.4659921442926 299.27360381011425 1150.0854281393417 299.27360381011425Q1155.6770451443163 299.27360381011425 1156.6785287869982 302.6675205992033L1156.6785287869982 302.6675205992033Q1160.6844633577264 310.0673719590204 1166.109166422254 335.9112137382314L1166.109166422254 335.9112137382314Q1177.5149523527991 389.99133044306035 1182.9118364272522 404.01210144060866L1182.9118364272522 404.01210144060866Q1183.9133200699343 406.8218194381332 1185.7215544247767 406.8218194381332Q1187.5297887796191 406.8218194381332 1188.9207382833442 403.81736851008714L1188.9207382833442 403.81736851008714Q1190.7289726381869 402.00913415524457 1196.0423997424164 389.9078734728369Q1201.355826846646 377.77879380035466 1203.2475181717123 372.77137558694454Z " fill="#005555" transform="matrix(0.6742735427780737,0,0,0.6742735427780737,0,47.63722731905668)"/></g></svg>